<svg xmlns="http://www.w3.org/2000/svg" id="Layer_1" data-name="Layer 1" viewBox="0 0 750 750"><defs><style>.cls-1{fill:#212226}.cls-2{fill:#f5ba3b}</style></defs><rect width="750" height="1334" x=".329" y="-292.43" class="cls-1"/><path d="M639.36166,563.07249a309.03486,309.03486,0,0,1-437.8663-436.21473L189.24729,231.70045c-3.98152,34.08154,11.51236,67.14738,39.49289,87.00925q1.20984.85881,2.39768,1.76281c21.69557,16.52585,39.56321,30.51019,39.56321,30.51019s20.38748-1.31289,35.704,11.4019,23.01568,40.73644,30.68116,50.91694,23.00605,35.639,44.65827,29.2262,47.12514-14.10715,84.12516,8.76165,44.65827,29.2262,52.35023,53.42475q.11538.363.22848.7271a77.8237,77.8237,0,0,0,70.058,54.92576Z" class="cls-2"/><path d="M611.68335,212.89524c3.13-35.26963-11.73206-77.26676-41.63907-98.35246-29.80176-21.2342-74.35093-21.34612-106.59265-6.71s-48.37352,59.43449-54.49135,87.90045-26.51274,183.48815-26.51274,183.48815,139.515-70.59324,164.34743-85.79479S608.5533,248.16486,611.68335,212.89524ZM475.5213,248.37681a61.16978,61.16978,0,1,1,85.27749-14.53394A61.16972,61.16972,0,0,1,475.5213,248.37681Z" class="cls-2"/></svg>